<svg width="26" height="26" viewBox="0 0 26 26" fill="none" xmlns="http://www.w3.org/2000/svg">
<path d="M13 25.5C6.09625 25.5 0.5 19.9037 0.5 13C0.5 6.09624 6.09625 0.499992 13 0.499992C19.9038 0.499992 25.5 6.09624 25.5 13C25.5 19.9037 19.9038 25.5 13 25.5ZM13 23C15.6522 23 18.1957 21.9464 20.0711 20.0711C21.9464 18.1957 23 15.6522 23 13C23 10.3478 21.9464 7.80429 20.0711 5.92892C18.1957 4.05356 15.6522 2.99999 13 2.99999C10.3478 2.99999 7.8043 4.05356 5.92893 5.92892C4.05357 7.80429 3 10.3478 3 13C3 15.6522 4.05357 18.1957 5.92893 20.0711C7.8043 21.9464 10.3478 23 13 23Z" fill="#09121F"/>
</svg>
