<svg width="854" height="721" viewBox="0 0 854 721" fill="none" xmlns="http://www.w3.org/2000/svg">
<path d="M730 7.54121C730 7.54121 462.511 -55.3147 381.7 208.664C323.718 398.083 318.777 501.371 198.491 553.441C78.22 605.51 8.182 616.661 1 673.037" stroke="white" stroke-miterlimit="10"/>
<path d="M316.981 673.037C316.981 673.037 246.376 497.767 432.703 406.196C558.482 344.38 499.514 134.509 581.027 67.6973C645.679 14.7233 730 129.109 730 129.109" stroke="white" stroke-miterlimit="10"/>
<path d="M372.236 720.395C372.236 720.395 374.383 584.815 518.036 495.931C661.69 407.047 605.462 253.511 688.082 230.17C770.689 206.828 853.295 307.39 853.295 307.39" stroke="white" stroke-miterlimit="10"/>
<path d="M473.284 671.957C473.284 671.957 462.511 560.623 572.05 546.259C681.589 531.895 774.969 653.597 774.969 653.597" stroke="white" stroke-miterlimit="10"/>
</svg>
